<svg xmlns="http://www.w3.org/2000/svg" width="100" height="100" viewBox="0 0 100 100">
<g>
<path d="M 56.50 88.87 C54.51,90.04 51.67,90.98 50.19,90.95 C47.55,90.91 17.32,73.09 15.78,70.67 C15.37,70.03 15.02,60.64 15.02,49.82 C15.00,33.81 15.27,29.87 16.47,28.67 C19.29,25.85 25.06,22.81 26.53,23.37 C28.62,24.18 28.35,27.64 26.07,29.24 C24.24,30.52 24.37,30.74 28.43,33.19 L 32.72 35.78 L 39.85 31.64 L 46.97 27.50 L 46.98 22.17 L 47.00 16.84 L 43.25 19.11 C41.19,20.36 38.75,21.83 37.83,22.38 C35.94,23.51 33.00,21.70 33.00,19.40 C33.00,17.71 47.71,9.00 50.57,9.00 C53.35,9.00 82.44,26.37 84.44,29.22 C85.71,31.04 86.00,34.76 85.99,49.47 C85.98,61.89 85.58,68.27 84.72,69.97 C82.90,73.57 68.08,82.54 66.06,81.27 C62.81,79.22 63.77,77.14 69.44,73.95 C72.50,72.22 75.25,70.41 75.55,69.92 C76.16,68.94 70.27,65.01 68.17,65.00 C67.45,65.00 63.73,66.85 59.92,69.11 L 53.00 73.23 L 53.00 78.01 C53.00,82.77 53.02,82.79 56.25,82.65 C58.86,82.53 59.56,82.92 59.80,84.62 C60.02,86.16 59.12,87.32 56.50,88.87 ZM 52.79 56.31 C52.99,62.34 53.45,64.98 54.29,64.92 C54.96,64.88 57.53,63.61 60.00,62.11 L 64.50 59.38 L 64.80 52.69 C65.06,46.75 64.89,46.00 63.25,46.00 C61.39,46.00 59.00,44.24 59.00,42.87 C59.00,42.47 59.67,41.47 60.50,40.64 C61.83,39.31 61.37,38.78 56.33,35.90 L 50.66 32.66 L 45.24 35.58 C42.26,37.19 39.67,38.75 39.48,39.05 C39.29,39.35 42.14,41.40 45.82,43.60 L 52.50 47.61 ZM 53.00 26.79 L 68.27 35.79 L 72.56 33.20 L 76.85 30.60 L 66.18 24.18 C60.30,20.65 54.94,17.54 54.25,17.27 C53.35,16.92 53.00,18.19 53.00,21.79 ZM 74.25 60.83 C79.94,64.35 80.00,64.24 80.00,50.00 C80.00,42.53 79.60,37.00 79.06,37.00 C78.54,37.00 76.51,37.94 74.56,39.10 L 71.00 41.20 L 71.00 58.82 ZM 21.00 50.58 L 21.00 64.16 L 24.75 61.88 C26.81,60.63 28.83,59.13 29.23,58.55 C29.64,57.97 29.98,53.83 29.98,49.35 L 30.00 41.20 L 26.44 39.10 C24.49,37.94 22.46,37.00 21.94,37.00 C21.40,37.00 21.00,42.74 21.00,50.58 ZM 35.28 76.13 C41.45,79.87 46.61,82.94 46.75,82.96 C46.89,82.98 46.99,80.64 46.98,77.75 L 46.96 72.50 L 40.55 68.75 C37.02,66.69 33.60,65.00 32.95,65.00 C32.30,65.00 30.04,65.98 27.91,67.17 L 24.05 69.34 ZM 40.75 61.87 C43.36,63.58 45.84,64.98 46.25,64.99 C46.66,64.99 47.00,61.96 47.00,58.24 L 47.00 51.49 L 42.46 48.74 C39.96,47.23 37.49,46.00 36.96,46.00 C36.43,46.00 36.00,48.87 36.00,52.38 L 36.00 58.76 Z" fill="rgb(3,3,3)" data-index="0" style="visibility: visible; opacity: 1;"></path>

</g>
</svg>